PathFileType	4	(X/Y/Z)	SUBJ63_3_walk_RCNL2025.trc
DataRate	CameraRate	NumFrames	NumMarkers	Units	OrigDataRate	OrigDataStartFrame	OrigNumFrames
100	100	7	25	mm	100	172	228
Frame#	Time	R_Shoulder			L_Shoulder			C7			J_Notch			R_Elbow			L_Elbow			R_Wrist			L_Wrist			R_Asis			L_Asis			Sacral			Thoracic			Sternum			R_Thigh_Lateral			R_Knee_Lateral			R_Shank_Lateral			R_Ankle_Lateral			R_Heel			R_Toe			L_Thigh_Lateral			L_Knee_Lateral			L_Shank_Lateral			L_Ankle_Lateral			L_Heel			L_Toe		
		X1	Y1	Z1	X2	Y2	Z2	X3	Y3	Z3	X4	Y4	Z4	X5	Y5	Z5	X6	Y6	Z6	X7	Y7	Z7	X8	Y8	Z8	X9	Y9	Z9	X10	Y10	Z10	X11	Y11	Z11	X12	Y12	Z12	X13	Y13	Z13	X14	Y14	Z14	X15	Y15	Z15	X16	Y16	Z16	X17	Y17	Z17	X18	Y18	Z18	X19	Y19	Z19	X20	Y20	Z20	X21	Y21	Z21	X22	Y22	Z22	X23	Y23	Z23	X24	Y24	Z24	X25	Y25	Z25
172	1.71000000	1515.199097	1291.524170	-132.611572	1515.191162	1289.628906	-468.133514	1435.361328	1352.429321	-305.473877	1556.987427	1247.895508	-302.735931	1482.745361	1015.619385	-17.322580	1444.717407	994.216003	-556.710327	1573.993408	807.258850	21.007855	1527.513000	785.640503	-593.039673	1560.930542	846.718384	-174.450714	1590.695190	838.339905	-421.504822	1352.845459	847.976990	-328.144440	1353.564331	1169.338257	-304.158234	1603.495361	1070.728394	-295.067780	1597.764160	515.940308	-108.431526	1613.424194	464.560577	-153.210251	1533.116699	317.823059	-109.474777	1450.751831	122.194939	-187.294281	1414.538574	136.493729	-242.985260	1548.677368	64.280716	-179.686188	1501.957153	457.787079	-491.443146	1490.374878	434.491669	-422.823547	1463.068115	243.041489	-450.788879	1419.475342	54.872742	-368.632355	1367.087036	53.078129	-318.395844	1533.942139	35.458210	-363.296326
173	1.72000000	1526.628174	1290.856201	-132.400681	1529.998169	1290.108643	-468.031067	1449.056763	1351.919312	-305.795624	1570.707031	1247.751465	-302.199646	1493.482544	1014.645874	-17.492846	1464.690063	993.749084	-557.821472	1584.181335	806.232056	21.682135	1556.716431	788.219727	-589.948608	1575.628906	846.648804	-175.968018	1603.742065	836.885071	-422.666382	1366.705200	847.711609	-326.991547	1367.624512	1168.567017	-305.862091	1617.516357	1071.168213	-294.595306	1616.988892	517.395203	-109.622055	1632.277832	465.194763	-154.990906	1561.315674	311.559418	-111.353584	1493.670166	110.826828	-189.648392	1457.340942	122.342552	-245.866165	1595.840210	61.055626	-180.560226	1505.353149	457.880219	-491.783691	1493.779419	434.556458	-422.995117	1464.191528	243.423584	-450.821045	1419.967651	55.423870	-367.937561	1367.995972	54.050449	-317.306946	1534.392700	35.411381	-363.538208
174	1.73000000	1538.256592	1289.742676	-132.225769	1544.846802	1290.077271	-467.909424	1462.857300	1351.009155	-306.096436	1584.462402	1247.138062	-301.689667	1504.382568	1013.312378	-17.542976	1484.700317	992.926697	-558.848328	1594.567749	804.873413	22.502113	1585.719849	790.948456	-586.811279	1590.462769	845.859741	-177.422256	1616.753540	835.024048	-423.927917	1380.593872	847.075378	-325.743073	1381.677002	1167.444946	-307.429657	1631.599243	1071.013306	-294.111908	1635.388062	518.126160	-110.804604	1650.188965	464.995819	-156.683990	1589.363403	304.746033	-113.172020	1537.343140	100.126663	-191.892990	1501.280640	108.815697	-248.750412	1643.060425	58.876648	-180.931885	1509.088257	457.884369	-492.014404	1497.547729	434.593628	-423.055420	1465.395508	243.858765	-450.700897	1420.537964	56.041008	-366.981140	1369.078247	55.125011	-315.805359	1534.899536	35.357605	-363.777893
175	1.74000000	1550.165405	1288.203491	-132.068161	1559.751831	1289.554321	-467.749146	1476.748291	1349.733398	-306.355652	1598.261841	1246.072021	-301.207855	1515.481079	1011.646179	-17.479391	1504.749878	991.788574	-559.764343	1605.165588	803.200775	23.456537	1614.440430	793.803467	-583.639862	1605.435547	844.397827	-178.744339	1629.751709	832.809753	-425.280518	1394.530029	846.108948	-324.477112	1395.717773	1166.003784	-308.814545	1645.729736	1070.239624	-293.623932	1652.763794	517.996887	-112.037766	1667.140991	463.987946	-158.315735	1617.081421	297.730347	-114.912437	1581.558594	90.418335	-193.905518	1546.062622	96.274437	-251.497177	1690.095581	57.936180	-180.874512	1513.172485	457.783600	-492.106079	1501.734619	434.590637	-422.974182	1466.701294	244.342834	-450.375427	1421.178467	56.736401	-365.760345	1370.327759	56.311584	-313.905396	1535.440674	35.295944	-363.987762
176	1.75000000	1562.412964	1286.271606	-131.909393	1574.717773	1288.579956	-467.527313	1490.712158	1348.129150	-306.549988	1612.114624	1244.580688	-300.753998	1526.809570	1009.684509	-17.310217	1524.834229	990.389038	-560.547180	1615.989685	801.243317	24.535543	1642.792358	796.761749	-580.445831	1620.545410	842.335510	-179.880966	1642.754028	830.315430	-426.707550	1408.523682	844.853149	-323.244781	1409.747681	1164.274658	-309.976288	1659.897339	1068.845703	-293.142334	1668.925415	516.887207	-113.358017	1683.147461	462.215210	-159.904419	1644.271362	290.833710	-116.557281	1626.012085	81.993935	-195.566803	1591.271484	85.034386	-253.927383	1736.653931	58.371506	-180.510223	1517.584961	457.584503	-492.059601	1506.380981	434.540131	-422.746857	1468.140259	244.875259	-449.821533	1421.869507	57.527840	-364.317017	1371.716919	57.623928	-311.693146	1535.983398	35.229778	-364.143158
177	1.76000000	1575.029419	1283.989746	-131.733566	1589.740234	1287.212036	-467.219116	1504.731934	1346.235352	-306.654938	1626.032227	1242.700806	-300.324615	1538.392456	1007.470886	-17.044500	1544.935425	988.791016	-561.176758	1627.056213	799.038208	25.730266	1670.688354	799.799957	-577.242065	1635.784790	839.767395	-180.801025	1655.776489	827.629333	-428.183807	1422.579712	843.342957	-322.071838	1423.773315	1162.288696	-310.883698	1674.099487	1066.854126	-292.680878	1683.741943	514.724426	-114.769341	1698.270142	459.744324	-161.455185	1670.757446	284.322906	-118.094093	1670.303467	75.083344	-196.780624	1636.379883	75.333420	-255.851593	1782.388306	60.239529	-179.989609	1522.307007	457.315277	-491.905975	1511.519409	434.439819	-422.400360	1469.752686	245.459778	-449.063385	1422.585815	58.433727	-362.736572	1373.197998	59.078995	-309.311646	1536.493042	35.166958	-364.229675
178	1.77000000	1588.022461	1281.408081	-131.526398	1604.807861	1285.519165	-466.800568	1518.795654	1344.094238	-306.647736	1640.027710	1240.478027	-299.911102	1550.246826	1005.050598	-16.691853	1565.018433	987.058960	-561.635437	1638.381287	796.627319	27.031912	1698.040283	802.892944	-574.046722	1651.140015	836.807312	-181.497696	1668.836548	824.847168	-429.675751	1436.701904	841.606201	-320.961090	1437.806396	1160.082764	-311.517792	1688.344116	1064.314453	-292.253967	1697.202759	511.510651	-116.245514	1712.626099	456.671448	-162.960281	1696.435059	278.398682	-119.511841	1713.945679	69.822098	-197.497925	1680.783447	67.309494	-257.130035	1826.897095	63.493530	-179.472244	1527.355225	457.018616	-491.698486	1517.179565	434.291901	-421.995422	1471.592041	246.102264	-448.176971	1423.308105	59.472206	-361.138306	1374.715210	60.701622	-306.938995	1536.945068	35.117592	-364.250031
